# AST/ASF file generated using VICON BodyLanguage
# -----------------------------------------------
:version 1.10
:name VICON
:units
  mass 1.0
  length 0.45
  angle deg
:documentation
   .ast/.asf automatically generated from VICON data using
   VICON BodyBuilder and BodyLanguage model FoxedUp or BRILLIANT.MOD
:root
   order TX TY TZ RX RY RZ
   axis XYZ
   position 0 0 0  
   orientation 0 0 0 
:bonedata
  begin
     id 1 
     name lhipjoint
     direction 0.57768 -0.667037 0.470475 
     length 2.36008 
     axis 0 0 0  XYZ
  end
  begin
     id 2 
     name lfemur
     direction 0.34202 -0.939693 0  
     length 6.97235  
     axis 0 0 20  XYZ
    dof rx ry rz
    limits (-160.0 20.0)
           (-70.0 70.0)
           (-60.0 70.0)
  end
  begin
     id 3 
     name ltibia
     direction 0.34202 -0.939693 0   
     length 6.93428   
     axis 0 0 20   XYZ
    dof rx
    limits (-10.0 170.0)
  end
  begin
     id 4 
     name lfoot
     direction 0.133018 -0.365463 0.921272   
     length 2.18603   
     axis -90 7.62852e-016 20   XYZ
    dof rx rz
    limits (-45.0 90.0)
           (-70.0 20.0)
  end
  begin
     id 5 
     name ltoes
     direction 1.53519e-011 -4.22055e-011 1   
     length 1.07924   
     axis -90 7.62852e-016 20   XYZ
    dof rx
    limits (-90.0 20.0)
  end
  begin
     id 6 
     name rhipjoint
     direction -0.577712 -0.667019 0.470462   
     length 2.36015  
     axis 0 0 0  XYZ 
  end
  begin
     id 7 
     name rfemur
     direction -0.34202 -0.939693 0   
     length 6.71195   
     axis 0 0 -20   XYZ
    dof rx ry rz
    limits (-160.0 20.0)
           (-70.0 70.0)
           (-70.0 60.0)
  end
  begin
     id 8 
     name rtibia
     direction -0.34202 -0.939693 0   
     length 7.04592   
     axis 0 0 -20   XYZ
    dof rx
    limits (-10.0 170.0)
 end
 begin
     id 9 
     name rfoot
     direction -0.113796 -0.312651 0.943027   
     length 2.03846  
     axis -90 -7.62852e-016 -20   XYZ
    dof rx rz
    limits (-45.0 90.0)
           (-20.0 70.0)
  end
  begin
     id 10 
     name rtoes
     direction -1.53586e-011 -4.218e-011 1   
     length 1.01562   
     axis -90 -7.62852e-016 -20   XYZ
    dof rx
    limits (-90.0 20.0)
  end
  begin
     id 11 
     name lowerback
     direction -0.0417299 0.991937 -0.119667   
     length 2.05257   
     axis 0 0 0   XYZ
    dof rx ry rz
    limits (-20.0 45.0)
           (-30.0 30.0)
           (-30.0 30.0)
  end
  begin
     id 12 
     name upperback
     direction -0.00017666 0.999999 0.00105178   
     length 2.05693   
     axis 0 0 0   XYZ
    dof rx ry rz
    limits (-20.0 45.0)
           (-30.0 30.0)
           (-30.0 30.0)
  end
  begin
     id 13 
     name thorax
     direction 0.0185169 0.998203 0.0569866   
     length 2.0932   
     axis 0 0 0   XYZ
    dof rx ry rz
    limits (-20.0 45.0)
           (-30.0 30.0)
           (-30.0 30.0)
  end
  begin
     id 14 
     name lowerneck
     direction -0.0212406 0.982645 0.184277   
     length 1.72509   
     axis 0 0 0   XYZ
    dof rx ry rz
    limits (-20.0 45.0)
           (-30.0 30.0)
           (-30.0 30.0)
  end
  begin
     id 15 
     name upperneck
     direction 0.00528579 0.965323 -0.261004   
     length 1.76294   
     axis 0 0 0   XYZ
    dof rx ry rz
    limits (-20.0 45.0)
           (-30.0 30.0)
           (-30.0 30.0)
  end
  begin
     id 16
     name head
     direction 0.00695421 0.994078 -0.108445  
     length 1.78678  
     axis 0 0 0   XYZ
    dof rx ry rz
    limits (-20.0 45.0)
           (-30.0 30.0)
           (-30.0 30.0)
  end
  begin
     id 17 
     name lclavicle
     direction 0.97277 0.211305 -0.095232  
     length 3.84823  
     axis 0 0 0   XYZ
    dof ry rz
    limits (-20.0 10.0)
           (0.0 20.0)
  end
  begin
     id 18 
     name lhumerus
     direction 1 -4.48957e-011 -1.98313e-027   
     length 4.97185   
     axis 180 -30 -90   XYZ
    dof rx ry rz
    limits (-60.0 90.0)
           (-90.0 90.0)
           (-90.0 90.0)
  end
  begin
     id 19
     name lradius
     direction 1 -4.4898e-011 7.31063e-027   
     length 3.35811   
     axis 180 -30 -90   XYZ
    dof rx
    limits (-10.0 170.0)
  end
  begin
     id 20
     name lwrist
     direction 1 -4.48938e-011 9.95048e-027   
     length 1.67905   
     axis -8.75986e-015 90 90   XYZ
    dof ry
    limits (-180.0 0.0)
 end
  begin
     id 21 
     name lhand
     direction 1 -4.4901e-011 1.9901e-026   
     length 0.622776   
     axis -1.26985e-014 90 90   XYZ
    dof rx rz
    limits (-90.0 90.0)
           (-45.0 45.0)
  end
  begin
     id 22 
     name lfingers
     direction 1 -4.48961e-011 3.98019e-026   
     length 0.502098   
     axis -2.5397e-014 90 90   XYZ
    dof rx
    limits (0.0 90.0)
  end
  begin
     id 23
     name lthumb
     direction 0.707107 -6.34933e-011 0.707107   
     length 0.720915   
     axis -90 45 2.85299e-015   XYZ
    dof rx rz
    limits (-45.0 45.0)
           (-45.0 45.0)
  end
  begin
     id 24 
     name rclavicle
     direction -0.990867 0.133739 -0.0172226   
     length 3.78845  
     axis 0 0 0   XYZ 
    dof ry rz
    limits (-10.0 20.0)
           (-20.0 0.0)
  end
  begin
     id 25 
     name rhumerus
     direction -1 -4.48972e-011 -1.99267e-027  
     length 4.96493   
     axis 180 30 90   XYZ
    dof rx ry rz
    limits (-90.0 60.0)
           (-90.0 90.0)
           (-90.0 90.0)
  end
  begin
     id 26 
     name rradius
     direction -1 -4.48969e-011 8.96093e-027   
     length 3.34929   
     axis 180 30 90   XYZ
    dof rx
    limits (-10.0 170.0)
  end
  begin
     id 27 
     name rwrist
     direction -1 -4.48953e-011 9.95048e-027   
     length 1.67464   
     axis -8.75986e-015 -90 -90   XYZ
    dof ry
    limits (-180.0 0.0)
  end
  begin
     id 28
     name rhand
     direction -1 -4.49001e-011 1.9901e-026   
     length 0.638041   
     axis -1.26985e-014 -90 -90   XYZ
    dof rx rz
    limits (-90.0 90.0)
           (-45.0 45.0)
  end
  begin
     id 29
     name rfingers
     direction -1 -4.48967e-011 3.98019e-026   
     length 0.514405   
     axis -2.5397e-014 -90 -90   XYZ
    dof rx
    limits (0.0 90.0)
  end
  begin
     id 30
     name rthumb
     direction -0.707107 -6.34904e-011 0.707107   
     length 0.738586   
     axis -90 -45 -2.85299e-015   XYZ
    dof rx rz
    limits (-45.0 45.0)
           (-45.0 45.0)
  end
:hierarchy
  begin
    root lhipjoint rhipjoint lowerback
    lhipjoint lfemur
    lfemur ltibia
    ltibia lfoot
    lfoot ltoes
    rhipjoint rfemur
    rfemur rtibia
    rtibia rfoot
    rfoot rtoes
    lowerback upperback
    upperback thorax
    thorax lowerneck lclavicle rclavicle
    lowerneck upperneck
    upperneck head
    lclavicle lhumerus
    lhumerus lradius
    lradius lwrist
    lwrist lhand lthumb
    lhand lfingers
    rclavicle rhumerus
    rhumerus rradius
    rradius rwrist
    rwrist rhand rthumb
    rhand rfingers
  end

#!OML:ASF E:\Mandelcareful walks\Project 1\Capture day 1\Session 1\Subject1.ASF
:FULLY-SPECIFIED
:DEGREES
134
root -11.6046 15.0956 -7.59637 17.8476 7.53682 9.94128
lowerback 25.6579 -1.97537 5.1088
upperback 8.28814 -1.15502 0.638578
thorax -5.11623 -0.498528 -1.89375
lowerneck -32.5338 1.08123 -2.91009
upperneck 18.5599 5.79488 -10.7929
head 11.7434 0.856068 -2.53086
rclavicle 3.18055e-014 -1.90833e-014
rhumerus -29.7055 41.5679 -92.3965
rradius 52.1153
rwrist -78.4103
rhand 2.37226 -39.3164
rfingers 7.12502
rthumb 27.8605 -67.2704
lclavicle 3.18055e-014 -1.90833e-014
lhumerus -0.255773 -81.7273 92.6113
lradius 60.4999
lwrist 6.09013
lhand -28.0642 -22.838
lfingers 7.12502
lthumb -1.44794 7.13688
rfemur -52.6695 -8.66908 9.25117
rtibia 63.3039
rfoot -25.0062 -7.19453
rtoes -1.81599
lfemur -49.852 28.9476 -26.2729
ltibia 75.5216
lfoot -11.2431 8.55322
ltoes -15.8533
135
root -11.5419 15.1121 -7.49831 17.6861 6.85342 9.99567
lowerback 25.7086 -2.0295 5.19678
upperback 8.32984 -1.20039 0.694391
thorax -5.09745 -0.520866 -1.86909
lowerneck -32.5175 1.65493 -2.20202
upperneck 18.6699 6.5377 -11.7317
head 11.8989 1.10661 -2.86208
rclavicle 1.59028e-015 6.36111e-015
rhumerus -29.7484 41.7817 -92.4026
rradius 52.1144
rwrist -78.6038
rhand 1.95671 -39.3368
rfingers 7.12502
rthumb 27.4632 -67.3546
lclavicle 1.59028e-015 6.36111e-015
lhumerus 0.202122 -81.6789 92.2829
lradius 60.334
lwrist 6.51386
lhand -27.8863 -23.2115
lfingers 7.12502
lthumb -1.27615 6.7644
rfemur -52.1729 -8.43868 8.91671
rtibia 63.1471
rfoot -25.1708 -7.12238
rtoes -2.63787
lfemur -49.4285 27.6589 -25.32
ltibia 72.8418
lfoot -11.4593 7.75531
ltoes -16.0251
136
root -11.4637 15.1373 -7.38962 17.3669 5.81471 11.0189
lowerback 25.8308 -1.89188 4.39331
upperback 8.48718 -1.24259 0.393103
thorax -4.9839 -0.538909 -1.72678
lowerneck -32.7742 2.30202 -1.59923
upperneck 19.2 7.46622 -12.4924
head 12.2814 1.42227 -3.0856
rclavicle 1.90833e-014 3.02153e-014
rhumerus -29.756 41.693 -92.466
rradius 52.0494
rwrist -78.636
rhand 1.60636 -39.527
rfingers 7.12502
rthumb 27.1281 -67.5975
lclavicle 1.90833e-014 3.02153e-014
lhumerus 0.801675 -81.7928 91.5889
lradius 60.3814
lwrist 6.65984
lhand -27.6857 -22.3893
lfingers 7.12502
lthumb -1.08233 7.58766
rfemur -51.2915 -8.51591 7.42648
rtibia 62.8685
rfoot -25.2277 -6.84385
rtoes -4.30678
lfemur -48.4745 26.4277 -25.4492
ltibia 69.5902
lfoot -11.6721 7.05421
ltoes -19.4702
137
root -11.3861 15.1533 -7.29708 17.3496 4.99803 11.0199
lowerback 25.8307 -1.94779 4.40707
upperback 8.4259 -1.31127 0.440326
thorax -5.05483 -0.577192 -1.66188
lowerneck -32.7204 3.17339 -1.26533
upperneck 19.5505 8.76456 -13.1236
head 12.5664 1.91705 -3.12959
rclavicle -2.70347e-014 -3.18055e-014
rhumerus -29.914 42.0741 -92.6216
rradius 51.8571
rwrist -78.6029
rhand 1.52828 -39.409
rfingers 7.12502
rthumb 27.0534 -67.4911
lclavicle -2.70347e-014 -3.18055e-014
lhumerus 1.01826 -81.5171 91.4246
lradius 60.1641
lwrist 6.82467
lhand -27.8441 -21.6949
lfingers 7.12502
lthumb -1.2353 8.28125
rfemur -50.9189 -8.1068 7.0307
rtibia 62.5245
rfoot -25.1281 -6.81066
rtoes -5.80671
lfemur -48.0928 25.1264 -24.5296
ltibia 66.279
lfoot -12.1375 6.21628
ltoes -18.2406
138
root -11.3086 15.1914 -7.20487 17.4135 4.28287 11.1113
lowerback 25.7196 -1.77387 4.64905
upperback 8.46803 -1.05872 0.253188
thorax -4.94351 -0.451258 -2.08089
lowerneck -32.6893 3.87721 -0.294604
upperneck 19.9692 9.65677 -14.1001
head 12.9252 2.2298 -3.49771
rclavicle 6.36111e-015 -1.74931e-014
rhumerus -29.7206 41.2465 -92.6743
rradius 51.5175
rwrist -78.4687
rhand 1.68198 -38.8906
rfingers 7.12502
rthumb 27.2004 -66.9498
lclavicle 6.36111e-015 -1.74931e-014
lhumerus 3.49783 -82.4212 88.7889
lradius 60.0902
lwrist 7.22707
lhand -27.8617 -21.4011
lfingers 7.12502
lthumb -1.25231 8.57502
rfemur -50.4797 -7.76537 6.50618
rtibia 62.0242
rfoot -25.0532 -6.55189
rtoes -6.30624
lfemur -47.9057 23.9272 -23.9368
ltibia 62.9339
lfoot -12.1852 6.36486
ltoes -17.6102
139
root -11.2343 15.2235 -7.11516 17.4407 3.72221 11.173
lowerback 25.6805 -1.82655 4.55344
upperback 8.50136 -1.14596 0.379131
thorax -4.89027 -0.495275 -1.86366
lowerneck -32.5985 4.67429 -0.158094
upperneck 20.1675 11.0105 -14.9346
head 13.2021 2.70974 -3.56617
rclavicle 2.8625e-014 1.59028e-014
rhumerus -29.6987 41.796 -92.5245
rradius 51.3599
rwrist -78.6321
rhand 1.41647 -39.3022
rfingers 7.12502
rthumb 26.9464 -67.4009
lclavicle 2.8625e-014 1.59028e-014
lhumerus 4.29125 -82.0575 87.9955
lradius 60.1185
lwrist 7.34607
lhand -27.8169 -21.0112
lfingers 7.12502
lthumb -1.20909 8.96508
rfemur -49.9388 -7.47206 6.03747
rtibia 61.4533
rfoot -25.0926 -6.28823
rtoes -5.94754
lfemur -47.675 22.7529 -23.321
ltibia 59.6752
lfoot -12.0227 7.05893
ltoes -17.8549
